<svg width="20" height="20" viewBox="-0.551 0 6.178 6.178" xmlns="http://www.w3.org/2000/svg">
    <defs>
        <style>
            .a{fill:#fff}.c{fill:#211715}
        </style>
    </defs>
    <path class="a" d="M1.051.924c.206-.601.778-.855 1.411-.865.336.012.691.108.942.299.26.198.422.401.485.717.045.224.033.354.008.526l-.045.208a.23.23 0 0 1 .112-.014.2.2 0 0 1 .136.078.2.2 0 0 1 .028.093.6.6 0 0 1-.055.366.4.4 0 0 1-.126.143.5.5 0 0 1-.188.071l-.013.002c-.075.291-.367.642-.876.783a1.9 1.9 0 0 1-.886.014c-.473-.13-.779-.494-.835-.797l-.018-.001a.5.5 0 0 1-.189-.072.4.4 0 0 1-.126-.143.6.6 0 0 1-.055-.366.2.2 0 0 1 .028-.093.2.2 0 0 1 .136-.078.22.22 0 0 1 .16.041l-.039-.225a1 1 0 0 1-.024-.587q.013-.051.03-.099"/>
    <path d="M.782 5.238c.089-.082.186-.169.288-.206l.02-.006a1.2 1.2 0 0 1-.258-.273c-.031-.046-.124-.266-.114-.32a1.2 1.2 0 0 1 .041-.411c.07-.226.189-.476.425-.67.116-.095.231-.175.366-.218a1.3 1.3 0 0 0 .433.211c.267.068.644.058.887-.014a1.4 1.4 0 0 0 .463-.219c.174.034.313.127.452.241.236.194.355.444.425.67a1.2 1.2 0 0 1 .041.411.6.6 0 0 1-.107.301 1.5 1.5 0 0 1-.234.253c.074.017.311.207.428.342l.026.021a.4.4 0 0 1 .09-.125.35.35 0 0 1 .281-.08.33.33 0 0 1 .237.165.4.4 0 0 1 .043.16.57.57 0 0 1-.097.335.64.64 0 0 1-.521.298.24.24 0 0 1-.187-.098c-.22.049-.386.045-.615.01 0 0-.611-.093-.929-.138a1.1 1.1 0 0 0-.547.049c-.509.2-.795.228-1.34.164L.76 6.089a.2.2 0 0 1-.081.015.64.64 0 0 1-.521-.301.57.57 0 0 1-.097-.335.4.4 0 0 1 .043-.16.33.33 0 0 1 .237-.165.35.35 0 0 1 .281.08.4.4 0 0 1 .074.093q.042-.037.086-.079" style="fill:#79c6e0"/>
    <path class="a" d="M1.571 3.736c-.003-.135.034-.263.053-.341a1 1 0 0 1 .063-.173 1.3 1.3 0 0 0 .296.122c.267.068.644.058.887-.014a1.5 1.5 0 0 0 .437-.201 1 1 0 0 1 .059.092c.089.193.132.741-.153.898a1.4 1.4 0 0 1-.585.162 2.2 2.2 0 0 1-.601-.036c-.361-.094-.452-.309-.456-.509m.246 1.079a.4.4 0 0 1 .109-.007.13.13 0 0 1 .105.084c.012.046-.022.102-.07.102.08.021.123.117.107.198s-.077.147-.146.194a.22.22 0 0 1-.122.046.2.2 0 0 1-.087-.023.5.5 0 0 1-.238-.234m1.703-.371a.4.4 0 0 0-.108-.016.13.13 0 0 0-.112.075c-.016.045.014.104.061.107-.082.014-.132.107-.123.189s.065.152.13.205a.22.22 0 0 0 .118.056.2.2 0 0 0 .089-.017.5.5 0 0 0 .256-.214"/>
    <path class="c" d="M4.193 5.946a1.4 1.4 0 0 1-.44.028 3 3 0 0 1-.202-.027l-.585-.088c-.11-.016-.22-.035-.331-.048a1.3 1.3 0 0 0-.4.018 1 1 0 0 0-.176.054 3 3 0 0 1-.404.128c-.29.067-.584.052-.877.017a.06.06 0 0 0-.06.06.06.06 0 0 0 .06.06c.269.032.54.047.808-.001a2.5 2.5 0 0 0 .381-.103c.078-.027.154-.062.234-.084a1.1 1.1 0 0 1 .332-.037 3 3 0 0 1 .343.043q.306.045.611.092.115.019.232.032a1.6 1.6 0 0 0 .506-.028c.075-.017.044-.132-.032-.116M.77 5.33q.078-.074.16-.143l.021-.017c.003-.002.007-.005.002-.001l.012-.009.043-.029.043-.025.022-.011.01-.004.005-.002a.06.06 0 0 0 .042-.074.06.06 0 0 0-.074-.042c-.147.055-.259.17-.371.272a.06.06 0 0 0 0 .085.06.06 0 0 0 .085 0m3.124-.286.017.006c-.002.002-.014-.007-.003-.001l.009.005.046.027.054.038.031.024.006.005.016.013a2 2 0 0 1 .225.212.06.06 0 0 0 .085 0 .06.06 0 0 0 0-.085 2 2 0 0 0-.235-.219 1 1 0 0 0-.125-.091.3.3 0 0 0-.095-.047.06.06 0 0 0-.032.116ZM3.255 3.16a1 1 0 0 1 .061.096l.001.002.003.009.011.034a1 1 0 0 1 .031.141 1.1 1.1 0 0 1-.002.316.5.5 0 0 1-.123.27.2.2 0 0 1-.055.04 1 1 0 0 1-.124.06 1.2 1.2 0 0 1-.24.069 2 2 0 0 1-.5.027 2 2 0 0 1-.275-.036.6.6 0 0 1-.298-.156.4.4 0 0 1-.075-.11l-.003-.006-.006-.016-.009-.026-.016-.069c-.002-.012-.001-.003 0 0l-.002-.021-.002-.038.001-.068.006-.066c-.002.015 0-.001.001-.004l.003-.019.006-.033a1.4 1.4 0 0 1 .09-.302.06.06 0 0 0-.022-.082.06.06 0 0 0-.082.022 1.5 1.5 0 0 0-.098.311 1 1 0 0 0-.024.263.55.55 0 0 0 .092.282.64.64 0 0 0 .307.223 1.2 1.2 0 0 0 .292.061 2.2 2.2 0 0 0 .536-.004 1.3 1.3 0 0 0 .513-.164.5.5 0 0 0 .202-.288 1 1 0 0 0 .033-.369 1 1 0 0 0-.069-.31.6.6 0 0 0-.062-.098.06.06 0 0 0-.082-.022.06.06 0 0 0-.022.082Z"/>
    <path class="c" d="M2.266 3.881a.4.4 0 0 1-.161-.059l-.023-.019-.012-.013-.006-.006-.003-.003-.019-.03-.007-.014-.003-.007-.001-.003a.4.4 0 0 1-.018-.067l-.002-.011v.003l-.002-.016-.002-.037.004-.069.002-.015.001-.006.006-.032a1 1 0 0 1 .026-.106c.02-.075-.095-.106-.116-.032-.051.187-.082.428.089.565a.45.45 0 0 0 .217.092.06.06 0 0 0 .074-.042.06.06 0 0 0-.042-.074Zm.733-.531.007.015c.004.007-.004-.011-.001-.003l.004.01.013.039q.007.024.011.048l.004.026v.002l.002.015q.002.026.002.053l-.001.028-.001.013-.001.006-.012.054a.2.2 0 0 1-.02.049.06.06 0 0 0 .022.082.06.06 0 0 0 .082-.022.54.54 0 0 0-.008-.476.06.06 0 0 0-.104.061m-.52-1.077-.007.003.014-.006-.011.003.016-.002h-.011l.016.002-.006-.001-.021-.003-.023.005a.06.06 0 0 0-.037.055l.002.016a.1.1 0 0 0 .015.026l.012.009a.1.1 0 0 0 .03.008l-.016-.002.008.001.02.003h.01l.018-.003.003-.001.006-.002.021-.009a.07.07 0 0 0 .028-.036l.001-.024-.007-.022-.009-.012a.1.1 0 0 0-.025-.014l-.016-.002a.1.1 0 0 0-.03.008Zm-.245.432c.064.063.164.081.25.081s.186-.019.25-.081a.06.06 0 0 0-.085-.085c-.003.002-.014.011-.005.005l-.009.006-.017.009-.012.005q.01-.004-.001 0a.3.3 0 0 1-.122.02l-.058-.003-.006-.001a.3.3 0 0 1-.056-.015c-.003-.001-.017-.007-.003-.001l-.01-.005-.018-.01-.013-.009c.004-.001.012.01.004.003l-.005-.005a.06.06 0 0 0-.085.085Zm-.449-.787c-.022.072-.008.239.128.253.18-.002.191-.203.13-.297-.05-.077-.196-.109-.258.045m1.361 0c.022.072.008.239-.128.253-.18-.002-.191-.203-.13-.297.05-.077.196-.109.258.045m.69-.031c.06-.044.163-.052.213.014.024.032.023.081.025.119a.7.7 0 0 1-.003.138.4.4 0 0 1-.114.233.4.4 0 0 1-.212.097.06.06 0 0 0-.042.074.06.06 0 0 0 .074.042.49.49 0 0 0 .382-.311.65.65 0 0 0 .035-.284c-.006-.096-.026-.184-.113-.238a.28.28 0 0 0-.304.012.06.06 0 0 0-.022.082.06.06 0 0 0 .082.022Zm-2.72-.104a.28.28 0 0 0-.271-.028.24.24 0 0 0-.104.084.3.3 0 0 0-.039.133c-.019.186.016.383.16.514a.5.5 0 0 0 .254.118.06.06 0 0 0 .074-.042.06.06 0 0 0-.042-.074.4.4 0 0 1-.208-.094.4.4 0 0 1-.118-.236.7.7 0 0 1-.003-.138c.002-.038.001-.086.025-.118.049-.067.153-.06.213-.015a.06.06 0 0 0 .082-.022.06.06 0 0 0-.022-.082"/>
    <path class="c" d="M1.079 2.468c.011.258.175.494.365.657a1.4 1.4 0 0 0 .406.239 1 1 0 0 0 .125.039c.018.004.004.002.001.001l.013.003.027.006.06.011a2 2 0 0 0 .258.025 1.8 1.8 0 0 0 .553-.061.06.06 0 0 0-.016-.118l.016.118c.356-.1.7-.328.861-.671a.8.8 0 0 0 .071-.224.06.06 0 0 0-.042-.074.06.06 0 0 0-.074.042c-.043.295-.276.539-.532.683a1.4 1.4 0 0 1-.316.128.06.06 0 0 0 .016.118l-.016-.118a1.6 1.6 0 0 1-.449.058 2 2 0 0 1-.246-.014 1 1 0 0 1-.097-.016l-.053-.012-.019-.005-.038-.011a1.17 1.17 0 0 1-.64-.482.7.7 0 0 1-.112-.323c-.003-.077-.123-.077-.12 0"/>
    <path class="c" d="M1.444 4.317a1.2 1.2 0 0 1 .264.366l.015.035.007.019c.007.021-.003.014.004-.017-.003.011.008-.011.003-.006l-.009.015q-.03.046-.064.089l-.034.044-.051.063q-.046.057-.095.112a1 1 0 0 1-.073.078l-.012.011c-.003.004.015-.008.003-.002.012-.006.039-.007.014-.008.02.001-.009-.002-.015-.003a.7.7 0 0 1-.268-.131 1 1 0 0 1-.159-.146.7.7 0 0 1-.113-.157A1 1 0 0 1 .8 4.531l-.021-.074c-.001-.003-.003-.02-.001-.003l-.001-.008-.002-.04a1.1 1.1 0 0 1 .068-.451 1.3 1.3 0 0 1 .252-.435 1.4 1.4 0 0 1 .215-.19 1 1 0 0 1 .256-.138c.073-.024.042-.14-.032-.116a1.25 1.25 0 0 0-.477.31 1.45 1.45 0 0 0-.402.921.8.8 0 0 0 .01.191 1 1 0 0 0 .065.183.96.96 0 0 0 .265.344 1 1 0 0 0 .338.194c.038.011.093.03.129.009a.3.3 0 0 0 .065-.059q.105-.115.2-.237.046-.056.088-.116c.018-.026.041-.055.037-.089a.3.3 0 0 0-.034-.093 1 1 0 0 0-.053-.1 1.6 1.6 0 0 0-.153-.215 1 1 0 0 0-.082-.087c-.056-.053-.141.032-.085.085Zm1.873-1.149a1 1 0 0 1 .417.219 1.2 1.2 0 0 1 .3.363 1.4 1.4 0 0 1 .142.385c.027.146.036.314-.021.453a1 1 0 0 1-.251.322 1.3 1.3 0 0 1-.163.128q-.034.023-.07.042l-.029.015-.017.008-.002.001-.01.004-.049.014c.017-.004.006 0 .002 0l.026.007c-.012-.006.011.011.002.001q-.033-.033-.065-.068a4 4 0 0 1-.179-.215l-.038-.05-.034-.047-.02-.032c-.006-.005.005.015.003.008-.004-.014-.008.044.001.021l.013-.039a1.05 1.05 0 0 1 .249-.393c.056-.053-.029-.138-.085-.085a1.2 1.2 0 0 0-.26.396c-.02.047-.052.102-.026.152l.05.074q.095.125.197.245.041.048.085.095c.022.022.046.048.08.049.048.001.098-.024.139-.044a1 1 0 0 0 .161-.101 1.4 1.4 0 0 0 .343-.351c.181-.281.11-.654-.015-.942a1.4 1.4 0 0 0-.277-.415 1.3 1.3 0 0 0-.442-.3 1 1 0 0 0-.124-.036.06.06 0 0 0-.074.042.06.06 0 0 0 .042.074Z"/>
    <path class="c" d="M1.833 4.873c.041-.007.092-.017.127.013.012.01.023.046.003.047a.06.06 0 0 0-.016.118c.05.015.073.076.066.125-.01.07-.07.127-.127.164a.14.14 0 0 1-.101.031.3.3 0 0 1-.107-.052.45.45 0 0 1-.149-.174c-.035-.069-.138-.008-.104.061a.57.57 0 0 0 .217.233.3.3 0 0 0 .17.054.3.3 0 0 0 .158-.065c.086-.063.161-.155.163-.266a.23.23 0 0 0-.155-.224l-.016.118a.143.143 0 0 0 .113-.212c-.055-.102-.176-.1-.274-.083a.06.06 0 0 0-.042.074.06.06 0 0 0 .074.042Zm1.362-.128c-.099-.025-.221-.031-.28.071a.142.142 0 0 0 .106.213l-.016-.118c-.101.021-.165.123-.168.222-.003.106.066.204.145.269a.3.3 0 0 0 .154.075.3.3 0 0 0 .173-.043.57.57 0 0 0 .233-.216c.04-.066-.064-.127-.104-.061a.45.45 0 0 1-.156.155.3.3 0 0 1-.108.045.13.13 0 0 1-.102-.035c-.053-.041-.108-.101-.115-.171-.005-.054.024-.112.079-.124a.06.06 0 0 0 .043-.066.06.06 0 0 0-.059-.052c.005.001-.005-.011-.006-.018a.04.04 0 0 1 .017-.029c.038-.029.091-.011.132-.001.075.019.107-.097.032-.116m1.192.709a.4.4 0 0 1 .117-.194.3.3 0 0 1 .193-.061.28.28 0 0 1 .178.079.3.3 0 0 1 .081.202.46.46 0 0 1-.052.227 1 1 0 0 1-.048.083.3.3 0 0 1-.035.046.6.6 0 0 1-.288.187c-.072.02-.157.035-.224-.006a.17.17 0 0 1-.073-.196c.023-.074-.093-.105-.116-.032a.29.29 0 0 0 .065.28.3.3 0 0 0 .262.091.7.7 0 0 0 .426-.203.68.68 0 0 0 .203-.439.44.44 0 0 0-.086-.289.4.4 0 0 0-.229-.14.4.4 0 0 0-.311.064.5.5 0 0 0-.179.271c-.024.074.092.105.116.032ZM.804 5.422a.53.53 0 0 0-.147-.248.4.4 0 0 0-.268-.096.4.4 0 0 0-.256.098.4.4 0 0 0-.13.264.64.64 0 0 0 .168.481.7.7 0 0 0 .384.226c.112.022.22.018.311-.057a.285.285 0 0 0 .089-.302c-.023-.073-.139-.042-.116.032a.17.17 0 0 1-.057.185c-.057.045-.128.04-.195.027a.6.6 0 0 1-.307-.169.5.5 0 0 1-.077-.1.6.6 0 0 1-.082-.221.34.34 0 0 1 .05-.232.28.28 0 0 1 .165-.107.3.3 0 0 1 .224.047.38.38 0 0 1 .127.203c.024.073.14.042.116-.032Zm.299-3.827a.9.9 0 0 1-.039-.487 1.2 1.2 0 0 1 .161-.411c.142-.225.366-.384.614-.472a1.75 1.75 0 0 1 .895-.077 1.6 1.6 0 0 1 .495.168 1.4 1.4 0 0 1 .372.301c.206.233.281.554.252.859l-.013.109a.06.06 0 0 0 .042.074.06.06 0 0 0 .074-.042 2 2 0 0 0 .024-.246 1.4 1.4 0 0 0-.025-.276 1.1 1.1 0 0 0-.184-.457 1.53 1.53 0 0 0-.866-.576 1.8 1.8 0 0 0-.548-.059A2 2 0 0 0 1.9.079c-.282.082-.54.237-.719.472-.203.267-.3.626-.23.957a1 1 0 0 0 .036.118.06.06 0 0 0 .074.042.06.06 0 0 0 .042-.074"/>
    <path class="c" d="m2.297 1.053-.017.055.002-.005-.003.006-.005.01-.012.022-.014.021-.003.004-.005.005-.034.035-.01.008c-.009.007.006-.004 0 0l-.019.013-.022.013-.023.011c.006-.001.009-.004.001 0l-.012.004-.022.007-.025.005-.004.001q-.01.002.003 0l-.013.001a.06.06 0 1 0 0 .12.4.4 0 0 0 .227-.095.4.4 0 0 0 .125-.209.06.06 0 1 0-.116-.032Zm.4.051v.02l-.001.012c-.001.011.002-.01 0-.002l-.009.041-.007.019-.002.004-.002.004-.021.037-.006.008-.003.004c.005-.007-.002.002-.003.003l-.007.008-.03.03-.003.003-.004.003-.017.011-.019.011-.009.004c-.011.005.012-.005-.001 0a.06.06 0 0 0-.042.074.06.06 0 0 0 .074.042.37.37 0 0 0 .171-.137.35.35 0 0 0 .06-.2.06.06 0 0 0-.12 0Z"/>
</svg>
